<svg width="48" height="48" viewBox="0 0 48 48" fill="none" xmlns="http://www.w3.org/2000/svg">
<path d="M43.74 28.18C43.74 32.63 39.74 36.25 34.94 36.25H12.81C10.6849 36.2536 8.63025 35.4881 7.02558 34.0948C5.42092 32.7015 4.37464 30.7746 4.08003 28.67C4.02391 28.2792 3.99717 27.8848 4.00002 27.49C4.01061 25.1622 4.94412 22.9337 6.59574 21.2933C8.24736 19.653 10.4822 18.7347 12.81 18.74C14.0547 18.7349 15.2858 18.9975 16.42 19.51C16.73 15.31 20.56 12 25.21 12C26.348 11.9975 27.4768 12.2042 28.54 12.61C30.105 13.1452 31.4684 14.1472 32.4464 15.4811C33.4245 16.8149 33.9702 18.4165 34.01 20.07V20.17C34.3132 20.1545 34.6169 20.1545 34.92 20.17C36.8859 20.1581 38.8048 20.7709 40.4 21.92C40.9968 22.348 41.5318 22.8561 41.99 23.43C43.099 24.7669 43.7166 26.4432 43.74 28.18Z" stroke="white" stroke-width="2" stroke-linecap="round" stroke-linejoin="round"/>
</svg>
