<svg width="48" height="48" viewBox="0 0 48 48" fill="none" xmlns="http://www.w3.org/2000/svg">
<path d="M43.73 22.18C43.73 26.63 39.73 30.25 34.93 30.25H12.81C10.6849 30.2536 8.63023 29.4881 7.02557 28.0948C5.4209 26.7015 4.37463 24.7746 4.08001 22.67C4.0239 22.2793 3.99717 21.8848 4.00002 21.49C4.01061 19.1622 4.9441 16.9337 6.59573 15.2933C8.24735 13.653 10.4822 12.7347 12.81 12.74C14.0546 12.7349 15.2858 12.9975 16.42 13.51C16.73 9.31003 20.56 6.00002 25.21 6.00002C26.348 5.99748 27.4768 6.20424 28.54 6.61001C30.105 7.14519 31.4684 8.14722 32.4465 9.48107C33.4245 10.8149 33.9702 12.4165 34.01 14.07V14.17C34.3131 14.1546 34.6169 14.1546 34.92 14.17C36.8859 14.1582 38.8048 14.771 40.4 15.92C40.9968 16.348 41.5318 16.8561 41.99 17.43C43.0954 18.7682 43.7094 20.4444 43.73 22.18V22.18Z" stroke="white" stroke-width="2" stroke-linecap="round" stroke-linejoin="round"/>
<path d="M19.81 30.8201L13.42 41.4701" stroke="white" stroke-width="2" stroke-linecap="round" stroke-linejoin="round"/>
<path d="M23.37 33.8301L17.8 42.9701" stroke="white" stroke-width="2" stroke-linecap="round" stroke-linejoin="round"/>
<path d="M30.22 30.8201L23.83 41.4701" stroke="white" stroke-width="2" stroke-linecap="round" stroke-linejoin="round"/>
</svg>
