<svg width="48" height="48" viewBox="0 0 48 48" fill="none" xmlns="http://www.w3.org/2000/svg">
<path d="M43.73 22.18C43.73 26.63 39.73 30.25 34.93 30.25H12.81C10.6849 30.2536 8.6302 29.4881 7.02554 28.0948C5.42087 26.7015 4.37463 24.7746 4.08001 22.67C4.0239 22.2792 3.99714 21.8848 3.99999 21.49C4.01058 19.1622 4.94407 16.9337 6.5957 15.2934C8.24732 13.653 10.4822 12.7347 12.81 12.74C14.0546 12.7349 15.2858 12.9975 16.42 13.51C16.73 9.31003 20.56 6.00002 25.21 6.00002C26.348 5.9975 27.4768 6.20426 28.54 6.61001C30.105 7.14519 31.4684 8.14719 32.4464 9.48104C33.4245 10.8149 33.9702 12.4165 34.01 14.07V14.17C34.3131 14.1545 34.6169 14.1545 34.92 14.17C36.8859 14.1581 38.8048 14.7709 40.4 15.92C40.9968 16.348 41.5318 16.8561 41.99 17.43C43.0954 18.7682 43.7094 20.4444 43.73 22.18Z" stroke="white" stroke-width="2" stroke-linecap="round" stroke-linejoin="round"/>
<path d="M19.82 30.82L19.56 31.25" stroke="white" stroke-width="2" stroke-linecap="round" stroke-linejoin="round"/>
<path d="M16.89 35.7L15.02 38.81" stroke="white" stroke-width="2" stroke-linecap="round" stroke-linejoin="round" stroke-dasharray="1.04 5.19"/>
<path d="M13.68 41.04L13.43 41.47" stroke="white" stroke-width="2" stroke-linecap="round" stroke-linejoin="round"/>
<path d="M23.38 33.83L23.12 34.25" stroke="white" stroke-width="2" stroke-linecap="round" stroke-linejoin="round"/>
<path d="M20.82 38.02L19.22 40.66" stroke="white" stroke-width="2" stroke-linecap="round" stroke-linejoin="round" stroke-dasharray="0.88 4.41"/>
<path d="M18.07 42.54L17.81 42.97" stroke="white" stroke-width="2" stroke-linecap="round" stroke-linejoin="round"/>
<path d="M30.23 30.82L29.97 31.25" stroke="white" stroke-width="2" stroke-linecap="round" stroke-linejoin="round"/>
<path d="M27.3 35.7L25.43 38.81" stroke="white" stroke-width="2" stroke-linecap="round" stroke-linejoin="round" stroke-dasharray="1.04 5.19"/>
<path d="M24.09 41.04L23.83 41.47" stroke="white" stroke-width="2" stroke-linecap="round" stroke-linejoin="round"/>
</svg>
