<svg width="48" height="48" viewBox="0 0 48 48" fill="none" xmlns="http://www.w3.org/2000/svg">
<path d="M43.74 21.18C43.74 25.63 39.74 29.25 34.94 29.25H12.81C10.6849 29.2536 8.6302 28.4881 7.02554 27.0948C5.42087 25.7015 4.3746 23.7746 4.07998 21.67C4.02387 21.2792 3.99714 20.8848 3.99999 20.49C4.01058 18.1622 4.94407 15.9337 6.5957 14.2933C8.24732 12.6529 10.4822 11.7347 12.81 11.74C14.0546 11.7349 15.2858 11.9975 16.42 12.51C16.73 8.31003 20.56 5.00002 25.21 5.00002C26.348 4.9975 27.4768 5.20426 28.54 5.61001C30.105 6.14519 31.4684 7.14719 32.4464 8.48104C33.4245 9.81489 33.9702 11.4165 34.01 13.07V13.17C34.3131 13.1545 34.6169 13.1545 34.92 13.17C36.8859 13.1581 38.8048 13.7709 40.4 14.92C40.9968 15.348 41.5318 15.8561 41.99 16.43C43.099 17.7669 43.7166 19.4432 43.74 21.18V21.18Z" stroke="white" stroke-width="2" stroke-linecap="round" stroke-linejoin="round"/>
<path d="M29.15 30.63L30.81 40.02" stroke="white" stroke-width="2" stroke-linecap="round" stroke-linejoin="round"/>
<path d="M28.31 32.01L29.55 33.05L30.4 31.56" stroke="white" stroke-width="2" stroke-linecap="round" stroke-linejoin="round"/>
<path d="M29.58 39.19L30.38 37.73L31.68 38.79" stroke="white" stroke-width="2" stroke-linecap="round" stroke-linejoin="round"/>
<path d="M25.1 36.32L34.86 34.33" stroke="white" stroke-width="2" stroke-linecap="round" stroke-linejoin="round"/>
<path d="M26.49 37.08L27.62 35.84L26.11 35.07" stroke="white" stroke-width="2" stroke-linecap="round" stroke-linejoin="round"/>
<path d="M33.95 35.56L32.48 34.84L33.62 33.54" stroke="white" stroke-width="2" stroke-linecap="round" stroke-linejoin="round"/>
<path d="M17.03 33.84L14.33 42.99" stroke="white" stroke-width="2" stroke-linecap="round" stroke-linejoin="round"/>
<path d="M15.66 34.71L16.3 36.19L17.73 35.23" stroke="white" stroke-width="2" stroke-linecap="round" stroke-linejoin="round"/>
<path d="M13.6 41.7L14.96 40.75L15.65 42.27" stroke="white" stroke-width="2" stroke-linecap="round" stroke-linejoin="round"/>
<path d="M10.86 37.13L20.49 39.7" stroke="white" stroke-width="2" stroke-linecap="round" stroke-linejoin="round"/>
<path d="M11.77 38.44L13.33 37.82L12.33 36.47" stroke="white" stroke-width="2" stroke-linecap="round" stroke-linejoin="round"/>
<path d="M19.12 40.4L18.13 39.1L19.73 38.44" stroke="white" stroke-width="2" stroke-linecap="round" stroke-linejoin="round"/>
</svg>
