<svg width="48" height="48" viewBox="0 0 48 48" fill="none" xmlns="http://www.w3.org/2000/svg">
<path d="M39.348 32.938C39.348 37.232 35.488 40.725 30.856 40.725H9.50101C7.45044 40.7284 5.46792 39.9897 3.91952 38.6453C2.37113 37.3009 1.36148 35.4417 1.07703 33.411C1.02292 33.0338 0.997184 32.653 1.00003 32.272C1.01035 30.026 1.911 27.8759 3.50445 26.2931C5.09791 24.7103 7.25409 23.8242 9.50003 23.829C10.7009 23.8241 11.8887 24.0775 12.983 24.5719C13.283 20.5189 16.978 17.325 21.465 17.325C22.5631 17.3227 23.6522 17.5223 24.678 17.914C26.1883 18.4306 27.504 19.3977 28.4477 20.6851C29.3914 21.9725 29.9178 23.5182 29.956 25.114V25.214C30.2485 25.199 30.5415 25.199 30.834 25.214C32.7311 25.2026 34.5827 25.7941 36.122 26.903C36.6978 27.3159 37.214 27.8062 37.656 28.36C38.7264 29.65 39.3225 31.2678 39.345 32.944L39.348 32.938Z" stroke="white" stroke-width="2" stroke-linecap="round" stroke-linejoin="round"/>
<path d="M39.18 21.204C39.1673 22.3176 38.8829 23.4112 38.3515 24.3899C37.8202 25.3686 37.058 26.2028 36.131 26.82C34.5918 25.7111 32.7401 25.1197 30.843 25.131C30.5505 25.1161 30.2575 25.1161 29.965 25.131V25.031C29.9269 23.4352 29.4006 21.8894 28.4568 20.602C27.5131 19.3146 26.1974 18.3475 24.687 17.831C25.3946 16.6789 26.389 15.73 27.5729 15.0771C28.7569 14.4242 30.09 14.0896 31.442 14.106C35.729 14.151 39.18 17.316 39.18 21.204Z" stroke="white" stroke-width="2" stroke-linecap="round" stroke-linejoin="round"/>
<path d="M31.474 7V10.329" stroke="white" stroke-width="2" stroke-linecap="round" stroke-linejoin="round"/>
<path d="M20.502 11.1591L23.078 13.5141" stroke="white" stroke-width="2" stroke-linecap="round" stroke-linejoin="round"/>
<path d="M41.162 28.451L43.738 30.806" stroke="white" stroke-width="2" stroke-linecap="round" stroke-linejoin="round"/>
<path d="M43.362 21.204H47" stroke="white" stroke-width="2" stroke-linecap="round" stroke-linejoin="round"/>
<path d="M39.879 13.5141L42.455 11.1591" stroke="white" stroke-width="2" stroke-linecap="round" stroke-linejoin="round"/>
</svg>
