<svg width="220" height="17" viewBox="0 0 220 17" fill="none" xmlns="http://www.w3.org/2000/svg">
<path d="M6.92188 17L9.76953 3.54688H14.6445L15.3828 0.0898438H1.33203L0.59375 3.54688H5.46875L2.60938 17H6.92188ZM28.9766 17L32.5742 0.0898438H28.1797L26.7617 6.74609H20.2109L21.6406 0.0898438H17.2461L13.6484 17H18.043L19.4961 10.1562H26.0469L24.582 17H28.9766ZM44.0117 13.543H36.7227L37.4609 10.0859H44.3047L44.9844 6.92188H38.1406L38.8555 3.54688H46.1328L46.8711 0.0898438H35.293L31.6953 17H43.2852L44.0117 13.543ZM63.1836 6.47656H63.2656L63.957 17H67.9883L75.9688 0.0898438H71.5391L66.9102 11.3633H66.8281L66.2656 0.0898438H62.8555L57.6406 11.3633H57.5586L57.6055 0.0898438H53.2344L54.0664 17H58.1445L63.1836 6.47656ZM86.3164 13.543H79.0273L79.7656 10.0859H86.6094L87.2891 6.92188H80.4453L81.1602 3.54688H88.4375L89.1758 0.0898438H77.5977L74 17H85.5898L86.3164 13.543ZM98.0117 3.86328H98.1055L98.5742 10.1914H94.7773L98.0117 3.86328ZM99.0312 17H103.402L101.457 0.0898438H96.1953L86.7734 17H91.3203L93.2305 13.2852H98.75L99.0312 17ZM111.336 17L114.184 3.54688H119.059L119.797 0.0898438H105.746L105.008 3.54688H109.883L107.023 17H111.336ZM133.391 17L136.988 0.0898438H132.594L131.176 6.74609H124.625L126.055 0.0898438H121.66L118.062 17H122.457L123.91 10.1562H130.461L128.996 17H133.391ZM148.426 13.543H141.137L141.875 10.0859H148.719L149.398 6.92188H142.555L143.27 3.54688H150.547L151.285 0.0898438H139.707L136.109 17H147.699L148.426 13.543ZM156.277 8.04688L157.297 3.33594H159.699C161.164 3.33594 161.996 4.05078 161.996 5.36328C161.996 6.93359 160.789 8.04688 158.926 8.04688H156.277ZM153.676 0.0898438L150.078 17H154.379L155.633 11.082H157.977L159.723 17H164.199L162.219 10.6602C164.855 9.75781 166.32 7.44922 166.32 5C166.32 2.15234 164.352 0.0898438 160.883 0.0898438H153.676ZM181.191 3.86328H181.285L181.754 10.1914H177.957L181.191 3.86328ZM182.211 17H186.582L184.637 0.0898438H179.375L169.953 17H174.5L176.41 13.2852H181.93L182.211 17ZM191.691 0.0898438L188.105 17H192.406L193.461 12.043H196.262C200.879 12.043 203.891 9.41797 203.891 5.1875C203.891 2.11719 201.676 0.0898438 197.984 0.0898438H191.691ZM195.289 3.39453H197.094C198.664 3.39453 199.566 4.12109 199.566 5.57422C199.566 7.47266 198.266 8.79688 196.262 8.79688H194.141L195.289 3.39453ZM207.23 0.0898438L203.645 17H207.945L209 12.043H211.801C216.418 12.043 219.43 9.41797 219.43 5.1875C219.43 2.11719 217.215 0.0898438 213.523 0.0898438H207.23ZM210.828 3.39453H212.633C214.203 3.39453 215.105 4.12109 215.105 5.57422C215.105 7.47266 213.805 8.79688 211.801 8.79688H209.68L210.828 3.39453Z" fill="white"/>
</svg>
