<svg width="48" height="48" viewBox="0 0 48 48" fill="none" xmlns="http://www.w3.org/2000/svg">
<path d="M21.56 30.67L17.42 36.7599H21.64L17.42 42.97" stroke="white" stroke-width="2" stroke-linecap="round" stroke-linejoin="round"/>
<path d="M29.18 30.62L25.04 36.71H29.26L25.04 42.91" stroke="white" stroke-width="2" stroke-linecap="round" stroke-linejoin="round"/>
<path d="M43.74 22.18C43.74 26.63 39.74 30.25 34.94 30.25H12.81C10.6849 30.2536 8.63024 29.4881 7.02557 28.0948C5.42091 26.7015 4.37464 24.7746 4.08003 22.67C4.02391 22.2792 3.99717 21.8848 4.00002 21.49C4.01061 19.1622 4.94411 16.9337 6.59574 15.2933C8.24736 13.6529 10.4822 12.7347 12.81 12.74C14.0547 12.7348 15.2858 12.9974 16.42 13.51C16.73 9.30997 20.56 6.00002 25.21 6.00002C26.348 5.99743 27.4768 6.20419 28.54 6.61001C30.105 7.14519 31.4684 8.14719 32.4465 9.48104C33.4245 10.8149 33.9702 12.4165 34.01 14.07V14.17C34.3132 14.1545 34.6169 14.1545 34.92 14.17C36.8859 14.1581 38.8048 14.7709 40.4 15.92C40.9968 16.348 41.5318 16.8561 41.99 17.43C43.099 18.7669 43.7166 20.4432 43.74 22.18V22.18Z" stroke="white" stroke-width="2" stroke-linecap="round" stroke-linejoin="round"/>
</svg>
