<svg width="48" height="48" viewBox="0 0 48 48" fill="none" xmlns="http://www.w3.org/2000/svg">
<path d="M39.348 27.919C39.348 32.213 35.488 35.706 30.856 35.706H9.501C7.45044 35.7094 5.46788 34.9707 3.91949 33.6264C2.3711 32.282 1.36144 30.4228 1.07699 28.392C1.0229 28.0148 0.997163 27.6341 0.999997 27.253C1.01032 25.0071 1.91099 22.857 3.50445 21.2742C5.09791 19.6914 7.25406 18.8052 9.5 18.81C10.7012 18.805 11.8894 19.0584 12.984 19.553C13.284 15.5 16.979 12.306 21.466 12.306C22.5641 12.3037 23.6532 12.5034 24.679 12.895C26.1894 13.4115 27.5051 14.3786 28.4489 15.666C29.3926 16.9534 29.9189 18.4992 29.957 20.095V20.195C30.2495 20.18 30.5425 20.18 30.835 20.195C32.7321 20.1838 34.5837 20.7751 36.123 21.884C36.6992 22.2953 37.216 22.7839 37.659 23.336C38.7293 24.6261 39.3254 26.2439 39.348 27.92V27.919Z" stroke="white" stroke-width="2" stroke-linecap="round" stroke-linejoin="round"/>
<path d="M39.184 16.1941C39.1713 17.3076 38.8869 18.4013 38.3555 19.38C37.8242 20.3587 37.0619 21.1929 36.135 21.8101C34.5957 20.7012 32.7441 20.1097 30.847 20.1211C30.5545 20.1061 30.2615 20.1061 29.969 20.1211V20.0511C29.9309 18.4553 29.4046 16.9095 28.4608 15.6221C27.5171 14.3347 26.2014 13.3676 24.691 12.8511C25.3986 11.699 26.393 10.7501 27.5769 10.0972C28.7609 9.44429 30.094 9.10966 31.446 9.12606C35.729 9.16006 39.184 12.3351 39.184 16.1941Z" stroke="white" stroke-width="2" stroke-linecap="round" stroke-linejoin="round"/>
<path d="M31.483 2V5.339" stroke="white" stroke-width="2" stroke-linecap="round" stroke-linejoin="round"/>
<path d="M20.502 6.16901L23.078 8.52401" stroke="white" stroke-width="2" stroke-linecap="round" stroke-linejoin="round"/>
<path d="M41.172 23.451L43.739 25.815" stroke="white" stroke-width="2" stroke-linecap="round" stroke-linejoin="round"/>
<path d="M43.362 16.2141H47" stroke="white" stroke-width="2" stroke-linecap="round" stroke-linejoin="round"/>
<path d="M39.879 8.52401L42.455 6.16901" stroke="white" stroke-width="2" stroke-linecap="round" stroke-linejoin="round"/>
<path d="M16.266 36.256L10.1 46.533" stroke="white" stroke-width="2" stroke-linecap="round" stroke-linejoin="round" stroke-dasharray="1 5"/>
<path d="M19.701 39.161L15.5 46.5" stroke="white" stroke-width="2" stroke-linecap="round" stroke-linejoin="round" stroke-dasharray="1 5"/>
<path d="M26.311 36.256L20.145 46.533" stroke="white" stroke-width="2" stroke-linecap="round" stroke-linejoin="round" stroke-dasharray="1 5"/>
</svg>
