<svg width="48" height="48" viewBox="0 0 48 48" fill="none" xmlns="http://www.w3.org/2000/svg">
<path d="M44.23 22.21C44.23 26.66 40.23 30.28 35.43 30.28H13.3C11.1826 30.2826 9.13522 29.5216 7.53352 28.1366C5.93183 26.7517 4.8832 24.8356 4.58003 22.74C4.52391 22.3492 4.49717 21.9548 4.50002 21.56C4.49607 20.4023 4.72085 19.2553 5.16144 18.1847C5.60204 17.1141 6.24978 16.1411 7.06746 15.3216C7.88514 14.502 8.85665 13.8521 9.92622 13.4091C10.9958 12.9661 12.1423 12.7387 13.3 12.74C14.5446 12.7349 15.7758 12.9975 16.91 13.51C17.22 9.31 21.05 6.00002 25.7 6.00002C26.838 5.99743 27.9668 6.20419 29.03 6.61001C30.595 7.14519 31.9584 8.14722 32.9365 9.48107C33.9145 10.8149 34.4602 12.4165 34.5 14.07V14.17C34.8032 14.1545 35.1069 14.1545 35.41 14.17C37.3759 14.1581 39.2948 14.7709 40.89 15.92C41.4868 16.348 42.0218 16.8561 42.48 17.43C43.5955 18.7748 44.2135 20.4629 44.23 22.21V22.21Z" stroke="white" stroke-width="2" stroke-linecap="round" stroke-linejoin="round"/>
<path d="M23.7 33.24V41.67" stroke="white" stroke-width="2" stroke-linecap="round" stroke-linejoin="round" stroke-dasharray="1 5"/>
<path d="M28.38 31.24V39.67" stroke="white" stroke-width="2" stroke-linecap="round" stroke-linejoin="round" stroke-dasharray="1 5"/>
<path d="M19 31.24V39.67" stroke="white" stroke-width="2" stroke-linecap="round" stroke-linejoin="round" stroke-dasharray="1 5"/>
</svg>
